<?xml version="1.0" encoding="utf-8"?>
<!-- Generator: Adobe Illustrator 18.0.0, SVG Export Plug-In . SVG Version: 6.00 Build 0)  -->
<!DOCTYPE svg PUBLIC "-//W3C//DTD SVG 1.1//EN" "http://www.w3.org/Graphics/SVG/1.1/DTD/svg11.dtd">
<svg version="1.1" id="Layer_1" xmlns="http://www.w3.org/2000/svg" xmlns:xlink="http://www.w3.org/1999/xlink" x="0px" y="0px"
	 viewBox="0 0 64 64" enable-background="new 0 0 64 64" xml:space="preserve">
<path d="M51.1,22.2c0,0.4,0,0.8,0,1.2c0,3.3-0.6,6.6-1.9,9.9s-3,6.3-5.3,9s-5.2,4.9-8.9,6.6s-7.6,2.5-12,2.5
	c-5.4,0-10.5-1.5-15.1-4.4c0.8,0.1,1.5,0.1,2.3,0.1c4.6,0,8.7-1.4,12.3-4.2c-2.2,0-4.1-0.6-5.8-1.9s-2.8-2.9-3.5-4.9
	c0.6,0.1,1.2,0.2,1.9,0.2c0.9,0,1.8-0.1,2.6-0.3c-2.3-0.5-4.2-1.7-5.7-3.5S10,28.7,10,26.4c0-0.1,0-0.1,0-0.2
	c1.4,0.8,2.8,1.2,4.4,1.2c-2.9-1.9-4.4-4.7-4.4-8.2c0-1.8,0.5-3.4,1.4-5c2.4,3.1,5.4,5.5,9,7.3s7.3,2.8,11.3,3
	c-0.2-0.8-0.3-1.5-0.3-2.2c0-2.8,1-5.1,2.9-7s4.2-2.9,6.9-2.9c2.9,0,5.3,1,7.2,3.1c2.2-0.4,4.3-1.2,6.3-2.3
	c-0.8,2.3-2.2,4.1-4.3,5.4c1.9-0.2,3.8-0.8,5.6-1.6C54.7,19.1,53.1,20.8,51.1,22.2z"/>
</svg>
