<?xml version="1.0" encoding="utf-8"?>
<!-- Generator: Adobe Illustrator 18.0.0, SVG Export Plug-In . SVG Version: 6.00 Build 0)  -->
<!DOCTYPE svg PUBLIC "-//W3C//DTD SVG 1.1//EN" "http://www.w3.org/Graphics/SVG/1.1/DTD/svg11.dtd">
<svg version="1.1" id="Layer_1" xmlns="http://www.w3.org/2000/svg" xmlns:xlink="http://www.w3.org/1999/xlink" x="0px" y="0px"
	 viewBox="0 0 64 64" enable-background="new 0 0 64 64" xml:space="preserve">
<g>
	<path d="M53.7,10.3c1.6,1.6,2.3,3.4,2.3,5.6V48c0,2.2-0.8,4.1-2.3,5.6S50.2,56,48,56H16c-2.2,0-4.1-0.8-5.6-2.3S8,50.2,8,48V16
		c0-2.2,0.8-4.1,2.3-5.6S13.8,8,16,8H48C50.2,8,52.1,8.8,53.7,10.3z M45.3,29c0.2,1,0.4,2,0.4,3c0,3.8-1.3,7-4,9.7s-5.9,4-9.7,4
		s-7-1.3-9.7-4s-4-5.9-4-9.7c0-1,0.1-2,0.4-3H14v12v6c0,0.8,0.3,1.5,0.9,2.1S16.2,50,17,50h30c0.8,0,1.5-0.3,2.1-0.9S50,47.8,50,47
		v-6V29H45.3z M22.8,32c0,2.5,0.9,4.7,2.7,6.5s4,2.7,6.5,2.7s4.7-0.9,6.5-2.7s2.7-4,2.7-6.5c0-1.1-0.2-2.1-0.6-3H23.4
		C23,29.9,22.8,30.9,22.8,32z M50,15.5c0-0.4-0.1-0.8-0.4-1.1S48.9,14,48.5,14h-3c-0.4,0-0.8,0.1-1.1,0.4S44,15.1,44,15.5v3
		c0,0.4,0.1,0.8,0.4,1.1s0.6,0.4,1.1,0.4h3c0.4,0,0.8-0.1,1.1-0.4s0.4-0.6,0.4-1.1V15.5z"/>
</g>
</svg>
