<?xml version="1.0" encoding="utf-8"?>
<!-- Generator: Adobe Illustrator 18.0.0, SVG Export Plug-In . SVG Version: 6.00 Build 0)  -->
<!DOCTYPE svg PUBLIC "-//W3C//DTD SVG 1.1//EN" "http://www.w3.org/Graphics/SVG/1.1/DTD/svg11.dtd">
<svg version="1.1" id="Layer_1" xmlns="http://www.w3.org/2000/svg" xmlns:xlink="http://www.w3.org/1999/xlink" x="0px" y="0px"
	 viewBox="0 0 64 64" enable-background="new 0 0 64 64" xml:space="preserve">
<path d="M47,38.5c2.4,0,4.5,0.9,6.2,2.6s2.6,3.8,2.6,6.2s-0.9,4.5-2.6,6.2S49.5,56,47,56s-4.5-0.9-6.2-2.6s-2.6-3.8-2.6-6.1
	c0-0.8,0.1-1.6,0.4-2.5l-14.7-7.5c-1.8,2.3-4.2,3.5-7,3.5c-2.4,0-4.4-0.8-6.1-2.5S8.2,34.4,8.2,32s0.9-4.5,2.6-6.2s3.8-2.5,6.1-2.5
	c2.8,0,5.1,1.1,6.8,3.3L38.7,19c-0.2-0.8-0.4-1.6-0.4-2.2c0-2.4,0.9-4.4,2.6-6.1S44.6,8,47,8s4.5,0.9,6.2,2.6s2.6,3.8,2.6,6.2
	S55,21.2,53.2,23s-3.8,2.6-6.2,2.6c-2.9,0-5.2-1.2-6.9-3.6l-14.8,7.6c0.3,0.9,0.5,1.7,0.5,2.4c0,0.7-0.1,1.4-0.4,2.2l14.8,7.6
	C42,39.6,44.2,38.5,47,38.5z"/>
</svg>
