<?xml version="1.0" encoding="utf-8"?>
<!-- Generator: Adobe Illustrator 18.0.0, SVG Export Plug-In . SVG Version: 6.00 Build 0)  -->
<!DOCTYPE svg PUBLIC "-//W3C//DTD SVG 1.1//EN" "http://www.w3.org/Graphics/SVG/1.1/DTD/svg11.dtd">
<svg version="1.1" id="Layer_1" xmlns="http://www.w3.org/2000/svg" xmlns:xlink="http://www.w3.org/1999/xlink" x="0px" y="0px"
	 viewBox="0 0 64 64" enable-background="new 0 0 64 64" xml:space="preserve">
<path d="M56,30h-5v-5h-4v5h-5v4h5v5h4v-5h5 M24,29v6.2h8.7c-0.7,3.8-3.9,6.5-8.7,6.5c-5.3,0-9.6-4.5-9.6-9.8s4.3-9.7,9.6-9.7
	c2.4,0,4.5,0.8,6.2,2.4v0l4.5-4.5C31.9,17.6,28.3,16,24,16c-8.8,0-16,7.2-16,16s7.2,16,16,16c9.2,0,15.4-6.5,15.4-15.6
	c0-1.2-0.1-2.3-0.3-3.4C39,29,24,29,24,29z"/>
</svg>
