<?xml version="1.0" encoding="utf-8"?>
<!-- Generator: Adobe Illustrator 18.0.0, SVG Export Plug-In . SVG Version: 6.00 Build 0)  -->
<!DOCTYPE svg PUBLIC "-//W3C//DTD SVG 1.1//EN" "http://www.w3.org/Graphics/SVG/1.1/DTD/svg11.dtd">
<svg version="1.1" id="Layer_1" xmlns="http://www.w3.org/2000/svg" xmlns:xlink="http://www.w3.org/1999/xlink" x="0px" y="0px"
	 viewBox="0 0 64 64" enable-background="new 0 0 64 64" xml:space="preserve">
<g>
	<path d="M21,14.4c0-1.2-0.4-2.2-1.3-3.1c-0.9-0.9-1.9-1.3-3.1-1.3s-2.2,0.4-3.1,1.3c-0.9,0.9-1.3,1.9-1.3,3.1s0.4,2.2,1.3,3.1
		c0.9,0.9,1.9,1.3,3.1,1.3s2.2-0.4,3.1-1.3C20.6,16.6,21,15.6,21,14.4z"/>
	<rect x="12.2" y="23.2" width="8.8" height="30.8"/>
	<path d="M51.8,34.2c0-3-1-5.6-2.9-7.8s-4.3-3.2-7-3.2c-2.5,0-5,1.8-7.7,5.5v-5.5h-8.8V54h8.8V36.4c0-1.2,0.4-2.2,1.3-3.1
		c0.9-0.9,1.9-1.3,3.1-1.3s2.2,0.4,3.1,1.3c0.9,0.9,1.3,1.9,1.3,3.1V54h8.8V34.2z"/>
</g>
</svg>
