<?xml version="1.0" encoding="utf-8"?>
<!-- Generator: Adobe Illustrator 18.0.0, SVG Export Plug-In . SVG Version: 6.00 Build 0)  -->
<!DOCTYPE svg PUBLIC "-//W3C//DTD SVG 1.1//EN" "http://www.w3.org/Graphics/SVG/1.1/DTD/svg11.dtd">
<svg version="1.1" id="Layer_1" xmlns="http://www.w3.org/2000/svg" xmlns:xlink="http://www.w3.org/1999/xlink" x="0px" y="0px"
	 viewBox="0 0 64 64" enable-background="new 0 0 64 64" xml:space="preserve">
<path d="M11.9,22.5c-0.2-0.4-0.3-0.8-0.4-1.3s-0.2-1.2-0.3-2.1s-0.1-1.9,0.1-3.1s0.5-2.3,1-3.5c0.1-0.1,0.2-0.1,0.4-0.1
	s0.6,0,1.2,0.1s1.3,0.2,2,0.4s1.7,0.6,2.9,1.2s2.5,1.4,3.8,2.2c2.2-0.6,5.4-0.9,9.4-0.9s7.1,0.3,9.4,0.9c1.4-0.9,2.7-1.6,3.8-2.2
	s2.2-1,2.9-1.2s1.4-0.3,2-0.4s1-0.1,1.2,0l0.4,0.1c0.5,1.2,0.8,2.4,1,3.5s0.2,2.2,0.1,3.1s-0.2,1.6-0.3,2.1s-0.2,0.9-0.4,1.3
	c2.6,2.8,3.9,6.2,3.9,10c0,2.2-0.2,4.2-0.6,5.9s-1,3.3-1.7,4.6s-1.6,2.5-2.8,3.4s-2.3,1.8-3.7,2.4s-2.8,1.1-4.5,1.5
	s-3.4,0.7-5.1,0.8s-3.6,0.2-5.8,0.2c-2.1,0-4-0.1-5.7-0.2s-3.5-0.4-5.1-0.8s-3.1-0.9-4.4-1.5s-2.5-1.4-3.6-2.4s-2-2.1-2.8-3.4
	S9,40.2,8.6,38.5S8,34.8,8,32.6C8,28.7,9.3,25.4,11.9,22.5z M14.4,42.1c0.3,1,0.8,1.9,1.3,2.6s1.2,1.3,2.2,1.8s1.8,0.9,2.7,1.2
	s2,0.5,3.4,0.6s2.7,0.2,3.8,0.2s2.5,0,4.1,0s3,0,4.1,0s2.3-0.1,3.7-0.2s2.5-0.3,3.4-0.6s1.8-0.7,2.7-1.2s1.6-1.1,2.2-1.8
	s1-1.5,1.3-2.6s0.5-2.2,0.5-3.6c0-2.3-1-4.4-3.1-6.2c-0.6-0.6-1.3-1-2.2-1.3s-1.7-0.5-2.8-0.5s-2-0.1-2.9,0s-2.1,0.1-3.5,0.2
	s-2.6,0.1-3.6,0.1s-2.2,0-3.6-0.1s-2.5-0.2-3.5-0.2s-1.9-0.1-3,0s-2,0.2-2.8,0.5s-1.5,0.7-2.1,1.3c-2.1,1.9-3.1,3.9-3.1,6.2
	C13.9,39.9,14.1,41.1,14.4,42.1z M23,33.5c0.8,0,1.5,0.4,2.1,1.3S26,36.8,26,38s-0.3,2.3-0.9,3.2s-1.3,1.3-2.1,1.3s-1.5-0.4-2.1-1.3
	S20,39.3,20,38s0.3-2.3,0.9-3.2S22.2,33.5,23,33.5z M41,33.5c0.8,0,1.5,0.4,2.1,1.3S44,36.8,44,38s-0.3,2.3-0.9,3.2
	s-1.3,1.3-2.1,1.3s-1.5-0.4-2.1-1.3S38,39.3,38,38s0.3-2.3,0.9-3.2S40.2,33.5,41,33.5z"/>
</svg>
